<?xml version="1.0" encoding="UTF-8" standalone="no"?>
<svg
   xmlns:dc="http://purl.org/dc/elements/1.1/"
   xmlns:cc="http://creativecommons.org/ns#"
   xmlns:rdf="http://www.w3.org/1999/02/22-rdf-syntax-ns#"
   xmlns:svg="http://www.w3.org/2000/svg"
   xmlns="http://www.w3.org/2000/svg"
   viewBox="0 0 2560 1440"
   height="1440"
   width="2560"
   xml:space="preserve"
   id="svg2"
   version="1.1"><metadata
     id="metadata8"><rdf:RDF><cc:Work
         rdf:about=""><dc:format>image/svg+xml</dc:format><dc:type
           rdf:resource="http://purl.org/dc/dcmitype/StillImage" /></cc:Work></rdf:RDF></metadata><defs
     id="defs6"><clipPath
       id="clipPath18"
       clipPathUnits="userSpaceOnUse"><path
         id="path16"
         d="M 0,1080 H 1920 V 0 H 0 Z" /></clipPath></defs><g
     transform="matrix(1.3333333,0,0,-1.3333333,0,1440)"
     id="g10"><g
       id="g12"><g
         clip-path="url(#clipPath18)"
         id="g14"><g
           transform="translate(278.8237,393.2383)"
           id="g20"><path
             id="path22"
             style="fill:#194467;fill-opacity:1;fill-rule:evenodd;stroke:none"
             d="m 0,0 h 76.29 v 107.619 c 0,42.124 0,119.548 62.032,119.548 13.699,0 27.342,-2.262 34.149,-6.261 v 76.86 c -7.969,2.261 -15.898,2.261 -23.321,2.261 -45.541,0 -76.859,-46.088 -80.282,-73.419 h -1.139 v 66.578 l -67.729,0 z" /></g><g
           transform="translate(767.8003,686.4233)"
           id="g24"><path
             id="path26"
             style="fill:#194467;fill-opacity:1;fill-rule:evenodd;stroke:none"
             d="m 0,0 h -76.307 v -143.443 c 0,-37.59 -11.945,-97.372 -67.17,-97.372 -48.954,0 -49.541,48.406 -49.541,84.281 V 0 h -76.29 v -185.009 c 0,-66.02 30.162,-114.991 99.611,-114.991 39.874,0 72.895,18.217 96.233,46.687 h 1.15 v -39.873 H 0 Z" /></g><g
           transform="translate(845.1553,393.2383)"
           id="g28"><path
             id="path30"
             style="fill:#194467;fill-opacity:1;fill-rule:evenodd;stroke:none"
             d="m 0,0 h 76.296 v 142.35 c 0,38.13 6.243,98.493 56.894,98.493 43.867,0 43.867,-38.712 43.867,-66.065 V 0 h 76.29 v 142.35 c 0,38.13 6.231,98.493 56.923,98.493 43.804,0 43.804,-38.712 43.804,-66.065 V 0 h 76.307 v 185.031 c 0,65.468 -20.535,114.996 -92.81,114.996 -35.875,0 -74,-16.519 -91.635,-51.813 -16.531,36.462 -45.559,51.813 -86.549,51.813 -28.452,0 -63.194,-11.933 -87.095,-47.808 h -1.14 v 40.967 H 0 Z" /></g><g
           transform="translate(1530.4492,619.6885)"
           id="g32"><path
             id="path34"
             style="fill:#194467;fill-opacity:1;fill-rule:evenodd;stroke:none"
             d="m 0,0 -19.817,-16.836 c -15.111,6.758 -31.829,10.506 -49.418,10.506 -67.522,0 -122.266,-55.216 -122.266,-123.329 0,-9.193 1.003,-18.164 2.892,-26.781 -12.233,21.705 -19.374,47.808 -19.374,75.888 0,75.462 45.67,136.624 115.065,136.624 C -54.744,56.072 -20.909,33.998 0,0" /></g><g
           transform="translate(1641.1768,551.9639)"
           id="g36"><path
             id="path38"
             style="fill:#194467;fill-opacity:1;fill-rule:evenodd;stroke:none"
             d="m 0,0 c 0,-45.359 -26.03,-79.938 -67.316,-98.735 l -34.972,50.73 c 12.248,18.843 19.331,41.125 19.331,64.97 0,67.847 -57.253,122.857 -127.859,122.857 -0.326,0 -0.664,0 -0.99,-0.015 15.952,4.456 33.009,8.337 50.745,8.337 C -72.112,148.144 0,74.753 0,0" /></g><g
           transform="translate(1626.9736,473.4658)"
           id="g40"><path
             id="path42"
             style="fill:#194467;fill-opacity:1;fill-rule:evenodd;stroke:none"
             d="m 0,0 c -19.875,-48.624 -76.989,-93.574 -147.971,-93.574 -75.52,0 -125.476,50.893 -125.476,113.678 0,15.347 3.659,30 10.3,43.354 l 52.146,-11.584 c 7.476,-54.829 63.545,-95.868 119.302,-95.868 36.786,0 70.347,20.974 91.699,43.994" /></g></g></g></g></svg>