<svg width="87" height="85" viewBox="0 0 87 85" fill="none" xmlns="http://www.w3.org/2000/svg">
<path d="M50.789 49.3885C52.7663 49.1014 54.7437 47.2927 54.7437 45.1108V29.0045C54.7437 26.7364 52.5356 24.6406 49.5696 24.6406H43.2089H36.8154C33.8163 24.6406 31.6412 26.7364 31.6412 29.0045V45.1108C31.6412 47.3214 33.6186 49.1301 35.596 49.3885L29.6309 57.1976H33.0583L37.3097 51.7427H43.143H48.9763L53.2277 57.1976H56.6552L50.789 49.3885ZM39.8474 26.3058C39.8474 25.9039 40.2429 25.5881 40.7043 25.5881H43.2089H45.7136C46.175 25.5881 46.5705 25.9326 46.5705 26.3058V27.5977C46.5705 27.9997 46.208 28.3442 45.7136 28.3442H43.2089H40.7043C40.2429 28.3442 39.8474 27.9997 39.8474 27.5977V26.3058ZM36.7165 47.063C35.4642 47.063 34.4425 46.173 34.4425 45.0821C34.4425 43.9911 35.4642 43.1011 36.7165 43.1011C37.9689 43.1011 38.9905 43.9911 38.9905 45.0821C38.9905 46.173 37.9689 47.063 36.7165 47.063ZM43.2089 36.5839H37.0131C35.596 36.5839 34.4096 35.7226 34.4425 34.3446V31.4449C34.4425 30.239 35.3323 29.1768 37.0131 29.1768H43.2089H49.4048C51.0856 29.1768 51.9754 30.239 51.9754 31.4449V34.3446C51.9754 35.7513 50.8219 36.5839 49.4048 36.5839H43.2089ZM47.3944 45.0821C47.3944 43.9911 48.4161 43.1011 49.6684 43.1011C50.9208 43.1011 51.9424 43.9911 51.9424 45.0821C51.9424 46.173 50.9208 47.063 49.6684 47.063C48.3831 47.063 47.3944 46.173 47.3944 45.0821Z" fill="#4E4E4E"/>
<path d="M33.6504 53.1328H51.9914" stroke="#4E4E4E" stroke-width="2"/>
<path d="M31.6504 55.8608L52.7426 55.8608" stroke="#4E4E4E" stroke-width="2"/>
<path d="M77.9546 48.6179C77.5874 48.2503 70.1539 43.1075 70.1539 43.1075C69.6279 46.4608 69.1029 48.2581 67.8699 51.3876C66.9091 53.8016 66.1868 55.0117 64.6659 56.9094L64.6454 56.935C62.8556 59.1614 61.7295 60.5622 59.6274 61.9732C57.782 63.4431 56.8833 63.8156 54.5916 64.7377C51.9183 65.8134 50.7682 66.0651 48.169 66.5839L42.2172 75.3276L47.2691 83.1402L52.7709 82.6746C55.8293 82.2017 57.5305 81.559 60.5635 80.3671C63.153 79.1653 64.5558 78.4493 66.9795 77.1413C68.9007 75.8869 69.8223 74.9678 71.5609 73.4576C73.551 71.7183 74.5484 70.6985 76.1414 68.8541C77.6414 67.2276 78.4338 66.1915 79.8049 64.2516C81.3532 61.998 82.1689 60.6213 83.4664 57.8096C84.4368 55.2237 84.9391 53.7211 85.7519 50.9091C86.4447 47.9705 86.7109 46.3463 86.6613 43.5502L78.8716 48.6169L77.9546 48.6179Z" fill="#973ABA"/>
<path fill-rule="evenodd" clip-rule="evenodd" d="M63.5963 64.7342C63.5961 64.1133 63.7446 63.5013 64.0294 62.9495C64.3141 62.3977 64.7269 61.9222 65.2331 61.5626C65.7393 61.203 66.3243 60.9699 66.9391 60.8827C67.5539 60.7955 68.1806 60.8568 68.7668 61.0614C68.906 61.1099 69.0587 61.1011 69.1914 61.037C69.3241 60.9728 69.4258 60.8586 69.4743 60.7195C69.5228 60.5803 69.514 60.4276 69.4499 60.2949C69.3857 60.1622 69.2715 60.0604 69.1324 60.012C68.1087 59.6548 66.9966 59.6401 65.9638 59.97C64.931 60.3 64.0335 60.9567 63.4064 61.8411C62.7794 62.7256 62.4568 63.79 62.4873 64.8737C62.5179 65.9575 62.8999 67.002 63.5757 67.8498C64.2516 68.6975 65.1847 69.3027 66.2344 69.5739C67.2842 69.8452 68.3936 69.7678 69.3956 69.3536C70.3975 68.9394 71.2377 68.2107 71.7895 67.2774C72.3412 66.3441 72.5747 65.2567 72.4546 64.1792C72.4466 64.1067 72.4243 64.0364 72.3892 63.9725C72.354 63.9086 72.3066 63.8522 72.2496 63.8066C72.1927 63.761 72.1273 63.7271 72.0572 63.7067C71.9872 63.6864 71.9138 63.6801 71.8413 63.6881C71.7687 63.6961 71.6985 63.7183 71.6346 63.7535C71.5707 63.7887 71.5143 63.8361 71.4687 63.893C71.4231 63.95 71.3891 64.0154 71.3688 64.0854C71.3485 64.1555 71.3421 64.2289 71.3501 64.3014C71.4087 64.8269 71.3594 65.3588 71.2054 65.8646C71.0514 66.3704 70.7958 66.8395 70.4543 67.2432C70.1129 67.6469 69.6927 67.9768 69.2194 68.2126C68.7462 68.4484 68.2298 68.5852 67.7019 68.6146C67.1739 68.6441 66.6456 68.5656 66.149 68.3839C65.6524 68.2023 65.1981 67.9212 64.8139 67.5581C64.4296 67.1949 64.1234 66.7571 63.9141 66.2716C63.7047 65.7861 63.5966 65.2629 63.5963 64.7342ZM71.7907 61.7686C71.8882 61.6581 71.9379 61.5134 71.9287 61.3663C71.9196 61.2192 71.8523 61.0817 71.7418 60.9842C71.6313 60.8866 71.4866 60.837 71.3395 60.8462C71.1924 60.8553 71.0549 60.9226 70.9574 61.0331L67.3824 65.0775L65.614 63.637C65.5575 63.5909 65.4924 63.5563 65.4225 63.5354C65.3527 63.5144 65.2793 63.5074 65.2068 63.5148C65.0602 63.5297 64.9255 63.6022 64.8324 63.7164C64.7863 63.773 64.7517 63.838 64.7308 63.9079C64.7098 63.9778 64.7028 64.0511 64.7102 64.1237C64.7251 64.2703 64.7976 64.405 64.9118 64.4981L67.0946 66.2759C67.2058 66.3663 67.3477 66.4103 67.4905 66.3986C67.6334 66.3869 67.7663 66.3204 67.8613 66.2131L71.7907 61.7686Z" fill="#E8F4F8"/>
<path d="M35.8431 74.5591C36.1944 74.1762 41.0174 66.5191 41.0174 66.5191C37.6554 66.1275 35.8436 65.6741 32.676 64.565C30.2322 63.6998 28.9974 63.0249 27.0453 61.5775L27.019 61.558C24.7285 59.8544 23.2874 58.7826 21.7966 56.7331C20.2577 54.9433 19.8503 54.0577 18.8389 51.7984C17.6592 49.163 17.3619 48.0206 16.74 45.4369L7.78831 39.8261L0.209242 45.2045L0.895553 50.6991C1.49037 53.7449 2.19939 55.4237 3.50946 58.4149C4.81145 60.9613 5.58151 62.3381 6.98259 64.714C8.31004 66.5886 9.26289 67.475 10.8378 69.1562C12.651 71.0802 13.7073 72.0385 15.6092 73.5603C17.2903 74.9976 18.3545 75.7499 20.3427 77.0454C22.6505 78.5059 24.0549 79.2676 26.9086 80.4542C29.5241 81.3221 31.0414 81.7646 33.8757 82.4655C36.8313 83.041 38.4601 83.242 41.2438 83.0793L35.8811 75.478L35.8431 74.5591Z" fill="#F88642"/>
<path d="M16.6368 60.9844C16.6017 60.9834 16.5664 60.9829 16.531 60.9829C14.4601 60.9829 12.7812 62.6618 12.7812 64.7329C12.7812 66.8039 14.4601 68.4828 16.531 68.4828C18.602 68.4828 20.2809 66.8039 20.2809 64.7329C20.2809 64.6975 20.2804 64.6622 20.2794 64.6271L21.3834 63.523C21.4797 63.9104 21.5308 64.3157 21.5308 64.7329C21.5308 67.4943 19.2923 69.7328 16.531 69.7328C13.7697 69.7328 11.5312 67.4943 11.5312 64.7329C11.5312 61.9715 13.7697 59.7329 16.531 59.7329C16.9482 59.7329 17.3534 59.784 17.7408 59.8803L16.6368 60.9844Z" fill="#E8F4F8"/>
<path d="M14.0312 64.7327C14.0312 63.5678 14.8279 62.589 15.9062 62.3115V63.65C15.5326 63.8661 15.2812 64.2701 15.2812 64.7327C15.2812 65.4231 15.8408 65.9827 16.5311 65.9827C16.9938 65.9827 17.3977 65.7314 17.6139 65.3577H18.9523C18.6747 66.436 17.696 67.2327 16.5311 67.2327C15.1505 67.2327 14.0312 66.1134 14.0312 64.7327Z" fill="#E8F4F8"/>
<path d="M20.2816 60.9829L19.6566 59.7329L17.7817 61.6079V62.599L16.4023 63.9784L17.2862 64.8623L18.6656 63.4829H19.6566L21.5316 61.6079L20.2816 60.9829Z" fill="#E8F4F8"/>
<path d="M8.74082 35.2459C9.10605 35.6154 16.5119 40.7981 16.5119 40.7981C17.0559 37.4477 17.5905 35.6532 18.8402 32.5304C19.8139 30.1216 20.5426 28.9154 22.0736 27.0259L22.0943 27.0004C23.896 24.7836 25.0295 23.3889 27.1391 21.9892C28.9923 20.5293 29.893 20.1616 32.1896 19.2518C34.8686 18.1906 36.02 17.945 38.622 17.4402L44.6204 8.72856L39.6103 0.888964L34.1061 1.325C31.0452 1.78148 29.3406 2.41498 26.3013 3.59056C23.7053 4.77842 22.511 5.67721 20.0804 6.97215C18.1524 8.21628 17.0137 8.94001 15.2671 10.4409C13.2677 12.1695 12.0515 13.1746 10.4486 15.0104C8.94004 16.6288 8.35546 17.6699 6.97407 19.6025C5.41371 21.8478 4.59071 23.22 3.27817 26.0247C2.29396 28.6054 1.78372 30.1053 0.955859 32.9128C0.247374 35.8477 -0.0274771 37.4704 0.00712771 40.2667L7.82378 35.2419L8.74082 35.2459Z" fill="#209DE3"/>
<path d="M15.1528 21.9442C15.33 21.7664 15.6173 21.7664 15.7945 21.9442C15.9581 22.1082 15.9707 22.3665 15.8323 22.545L15.7945 22.5879L14.7516 23.634C14.5449 23.8414 14.2182 23.8553 13.9954 23.6755L13.9494 23.634L13.3878 23.0707C13.2106 22.8929 13.2106 22.6048 13.3878 22.427C13.5514 22.2629 13.8088 22.2502 13.9868 22.3891L14.0296 22.427L14.3505 22.7489L15.1528 21.9442ZM20.9446 22.3936C21.1953 22.3936 21.3984 22.5975 21.3984 22.8488C21.3984 23.1002 21.1953 23.304 20.9446 23.304H16.8603C16.6096 23.304 16.4064 23.1002 16.4064 22.8488C16.4064 22.5975 16.6096 22.3936 16.8603 22.3936H20.9446ZM15.7945 18.7577C15.9718 18.9355 15.9718 19.2237 15.7945 19.4015L14.7516 20.4476C14.5301 20.6698 14.1709 20.6698 13.9494 20.4476L13.3878 19.8843C13.2106 19.7065 13.2106 19.4183 13.3878 19.2405C13.565 19.0628 13.8524 19.0628 14.0296 19.2405L14.3505 19.5625L15.1528 18.7577C15.33 18.58 15.6173 18.58 15.7945 18.7577ZM20.9446 19.2072C21.1953 19.2072 21.3984 19.411 21.3984 19.6624C21.3984 19.8959 21.2232 20.0883 20.9975 20.1146L20.9446 20.1176H16.8603C16.6096 20.1176 16.4064 19.9138 16.4064 19.6624C16.4064 19.429 16.5816 19.2366 16.8073 19.2103L16.8603 19.2072H20.9446ZM15.1528 15.5713C15.33 15.3935 15.6173 15.3935 15.7945 15.5713C15.9581 15.7354 15.9707 15.9936 15.8323 16.1722L15.7945 16.2151L14.7516 17.2612C14.5449 17.4686 14.2182 17.4824 13.9954 17.3027L13.9494 17.2612L13.3878 16.6979C13.2106 16.5201 13.2106 16.2319 13.3878 16.0541C13.5514 15.89 13.8088 15.8774 13.9868 16.0163L14.0296 16.0541L14.3505 16.376L15.1528 15.5713ZM20.9446 16.0208C21.1953 16.0208 21.3984 16.2246 21.3984 16.476C21.3984 16.7095 21.2232 16.9019 20.9975 16.9282L20.9446 16.9312H16.8603C16.6096 16.9312 16.4064 16.7274 16.4064 16.476C16.4064 16.2426 16.5816 16.0502 16.8073 16.0239L16.8603 16.0208H20.9446Z" fill="#E8F4F8"/>
<path d="M21.0771 14.6191H13.5771C12.8868 14.6191 12.3271 15.1788 12.3271 15.8691V23.3691C12.3271 24.0595 12.8868 24.6191 13.5771 24.6191H21.0771C21.7675 24.6191 22.3271 24.0595 22.3271 23.3691V15.8691C22.3271 15.1788 21.7675 14.6191 21.0771 14.6191Z" stroke="#E8F4F8" stroke-linecap="round" stroke-linejoin="round"/>
<path d="M51.3548 8.74272C50.988 9.11062 45.8525 16.5605 45.8525 16.5605C49.1955 17.0917 50.987 17.62 54.106 18.8599C56.5119 19.826 57.7177 20.5517 59.6083 22.079L59.6338 22.0996C61.8519 23.897 63.2474 25.0279 64.6521 27.1376C66.1158 28.9899 66.4862 29.8917 67.4032 32.191C68.473 34.8732 68.7228 36.027 69.2373 38.6344L77.9493 44.6127L85.7443 39.5541L85.2857 34.0357C84.8174 30.9678 84.1784 29.2609 82.9931 26.2178C81.7975 23.6194 81.0851 22.2118 79.7834 19.7796C78.5346 17.8514 77.6193 16.9262 76.1152 15.1809C74.3831 13.1832 73.3673 12.1818 71.53 10.5822C69.9098 9.07619 68.8776 8.28032 66.9447 6.90324C64.6993 5.34801 63.3276 4.52852 60.5254 3.22426C57.9481 2.24832 56.4504 1.74306 53.6475 0.924905C50.7182 0.227024 49.0991 -0.0416223 46.3111 0.00516231L51.3548 7.82298V8.74272Z" fill="#6AC865"/>
<path d="M74.0532 20.3157H74.1589V20.21V18.9772V18.8715H74.0532H73.2143C73.1649 18.7027 73.0977 18.5393 73.0136 18.3842L73.606 17.7918L73.6807 17.7171L73.606 17.6424L72.7342 16.7707L72.6595 16.6959L72.5848 16.7707L71.9903 17.3652C71.8431 17.2864 71.6889 17.2225 71.53 17.1746V16.3483V16.2427H71.4243H70.1915H70.0858V16.3483V17.1746C69.9349 17.2201 69.7884 17.2799 69.6485 17.3529L69.0662 16.7707L68.9915 16.6959L68.9168 16.7707L68.0451 17.6424L67.9704 17.7171L68.0451 17.7918L68.6147 18.3614C68.5305 18.5128 68.4625 18.672 68.4117 18.8363H67.5979H67.4922V18.942V20.1748V20.2805H67.5979H68.4016C68.4533 20.4575 68.5248 20.6285 68.6148 20.7905L68.0451 21.3602L67.9704 21.4349L68.0451 21.5096L68.9168 22.3813L68.9915 22.4561L69.0662 22.3813L69.6485 21.7991C69.7988 21.8778 69.9572 21.9409 70.1211 21.9874V22.8037V22.9093H70.2267H71.4595H71.5652V22.8037V21.9665C71.7117 21.9201 71.8542 21.8599 71.9903 21.7869L72.5848 22.3813L72.6595 22.4561L72.7342 22.3813L73.606 21.5096L73.6807 21.4349L73.606 21.3601L73.0136 20.7678C73.092 20.6231 73.1558 20.4716 73.204 20.3157H74.0532L74.0532 20.3157ZM72.3049 19.576C72.3049 20.4015 71.6334 21.073 70.8079 21.073C69.9824 21.073 69.3109 20.4015 69.3109 19.576C69.3109 18.7506 69.9824 18.079 70.8079 18.079C71.6334 18.079 72.3049 18.7506 72.3049 19.576Z" fill="#E8F4F8"/>
<path d="M68.2988 15.2881C66.8043 16.1526 65.7988 17.7684 65.7988 19.6191M68.2988 15.2881L68.2921 16.269M68.2988 15.2881L66.9646 15.3327M66.4677 22.1191C67.3323 23.6136 68.9481 24.6191 70.7988 24.6191M66.4677 22.1191L67.6402 22.1242M66.4677 22.1191L66.4549 23.3687M73.2988 23.9502C74.7933 23.0857 75.7988 21.4698 75.7988 19.6191M73.2988 23.9502L73.3294 22.8354M73.2988 23.9502L74.4317 23.9495M75.1299 17.1191C74.2654 15.6246 72.6495 14.6191 70.7988 14.6191M75.1299 17.1191L74.1828 17.1461M75.1299 17.1191L75.1429 16.0438" stroke="#E8F4F8" stroke-linecap="round" stroke-linejoin="round"/>
</svg>
